<svg width="82" height="101" viewBox="0 0 82 101" fill="none" xmlns="http://www.w3.org/2000/svg">
<path d="M34.6898 86.5054C34.6898 86.5054 32.9435 96.3652 26.4197 94.1323C22.6087 91.7624 25.4299 87.246 25.3352 83.7629C25.2405 80.2797 34.6898 86.5054 34.6898 86.5054Z" fill="#EFBB59"/>
<path d="M52.0358 61.041C52.0358 61.041 73.0824 69.1623 59.4806 74.7562C54.024 76.9987 55.7614 76.0787 54.1073 77.858C52.5183 79.5799 52.1546 85.196 50.6006 86.6511C43.4659 93.3328 39.1306 90.0985 33.1886 89.4319C25.0259 88.7853 23.9565 81.1156 25.268 73.4804C26.3531 67.1635 26.0916 69.841 22.4928 66.689C20.1476 65.2913 12.3588 62.2233 13.1471 57.9084C9.99725 53.4384 10.524 55.1677 10.918 54.3765C12.1082 51.9862 28.7952 57.6649 28.7952 57.6649L40.6527 59.0655L52.0358 61.041Z" fill="url(#paint0_linear_1662_4155)"/>
<path d="M21.3345 55.8405C17.8728 53.753 14.6144 51.979 18.9622 31.6005C26.9319 7.83102 40.4221 12.2823 40.4221 12.2823C40.4221 12.2823 39.0269 8.68072 39.8407 8.34723C41.1499 9.73645 48.5569 12.0109 52.3402 14.4745C62.6375 21.1797 73.1088 26.2853 66.6482 46.5804C63.5626 56.2733 53.999 59.9686 46.9131 61.1902C34.7885 63.2711 23.5235 57.1615 21.3345 55.8405Z" fill="url(#paint1_linear_1662_4155)"/>
<path d="M52.2215 75.2369C51.0993 72.5325 52.6259 69.3966 55.6312 68.2327C58.6365 67.0688 61.9825 68.3177 63.1047 71.0221C64.2269 73.7266 62.7003 76.8625 59.695 78.0263C56.6897 79.1902 53.3437 77.9413 52.2215 75.2369Z" fill="#EFB954"/>
<path d="M34.8087 87.1672C28.1545 86.5198 26.7056 82.5187 27.4091 76.7956C28.1125 71.0724 32.4522 68.1626 37.3049 68.6347C42.1575 69.1069 45.6856 72.7822 44.9821 78.5054C44.2786 84.2285 39.6614 87.6394 34.8087 87.1672Z" fill="#F8E5E5"/>
<path d="M13.6895 64.3539C10.5498 64.8084 7.65496 62.761 7.22355 59.7809C6.79214 56.8008 8.98757 54.0165 12.1272 53.562C15.2668 53.1075 18.1617 55.1549 18.5931 58.135C19.0245 61.1151 16.8291 63.8994 13.6895 64.3539Z" fill="url(#paint2_linear_1662_4155)"/>
<path d="M67.3146 20.1569L67.6342 26.6228C67.676 27.4793 67.4935 28.3353 67.1031 29.1141C66.7127 29.893 66.1266 30.5703 65.3973 31.0854C64.6681 31.6005 63.8184 31.9372 62.9245 32.0655C62.0305 32.1938 61.1203 32.1095 60.2754 31.8203L55.242 30.1011C54.3964 29.8119 53.6426 29.3265 53.0482 28.6884C52.4539 28.0503 52.0375 27.2795 51.8366 26.4453C51.6357 25.611 51.6565 24.7394 51.8971 23.9086C52.1377 23.0778 52.5906 22.3138 53.2151 21.6853L57.92 16.928C58.6582 16.1814 59.6078 15.6548 60.6508 15.4135C61.6937 15.1723 62.7838 15.2272 63.7852 15.5714C64.7867 15.9156 65.6553 16.5339 66.2829 17.3493C66.9104 18.1646 67.2693 19.141 67.3146 20.1569Z" fill="url(#paint3_linear_1662_4155)"/>
<path d="M60.958 26.6683C61.0796 26.6505 61.1926 26.5965 61.2806 26.5139C61.3687 26.4313 61.4272 26.3246 61.4476 26.2092L62.1875 22.1457C62.209 22.0638 62.2079 21.9783 62.1841 21.8976C62.1604 21.8169 62.1148 21.7438 62.0519 21.6855C61.9907 21.6225 61.9154 21.5734 61.8313 21.5419C61.7473 21.5103 61.6566 21.4969 61.5659 21.5028C61.4768 21.5184 61.3922 21.553 61.3186 21.6041L57.7178 23.9356C57.6375 23.9869 57.5717 24.0563 57.5263 24.1375C57.4809 24.2186 57.4574 24.309 57.4578 24.4003C57.4583 24.4917 57.4827 24.5811 57.5289 24.6606C57.575 24.74 57.6415 24.807 57.7222 24.8554L60.5832 26.5873C60.6937 26.659 60.8292 26.6877 60.9625 26.6677L60.958 26.6683Z" fill="white"/>
<path d="M33.9221 6.96589L38.9409 11.5088C39.6053 12.1099 40.0957 12.864 40.3661 13.7004C40.6365 14.5367 40.678 15.4279 40.4868 16.2902C40.2956 17.1525 39.8778 17.9577 39.2728 18.6301C38.6678 19.3026 37.8953 19.8204 37.0279 20.1347L31.2992 22.2116C30.4322 22.5241 29.4993 22.6234 28.5878 22.5002C27.6763 22.3769 26.816 22.0352 26.0874 21.5069C25.3589 20.9786 24.786 20.2811 24.4223 19.4797C24.0587 18.6782 23.9162 17.7991 24.0081 16.9246L24.7135 10.3055C24.8168 9.33603 25.2042 8.4097 25.8317 7.63239C26.4591 6.85507 27.3012 6.25813 28.2617 5.90979C29.2222 5.56145 30.2624 5.47576 31.2633 5.66252C32.2643 5.84927 33.1856 6.30094 33.9221 6.96589Z" fill="url(#paint4_linear_1662_4155)"/>
<path d="M29.4333 16.3203C29.4698 16.3193 29.506 16.314 29.5413 16.3047L32.4578 15.2456C32.5332 15.222 32.6004 15.1789 32.6521 15.1214C32.7038 15.0639 32.738 14.994 32.7507 14.9197C32.7696 14.8446 32.7672 14.7664 32.7436 14.6931C32.7201 14.6199 32.6763 14.5542 32.6169 14.5029L30.0579 12.1906C30.0115 12.1434 29.9534 12.108 29.8887 12.0877C29.824 12.0674 29.7547 12.0627 29.6872 12.0742C29.5828 12.0868 29.4857 12.1334 29.4124 12.2061C29.3391 12.2787 29.2942 12.3729 29.2853 12.4726L28.9277 15.8439C28.9178 15.9095 28.9248 15.9763 28.9482 16.0382C28.9716 16.1002 29.0107 16.1556 29.062 16.1996C29.1105 16.2456 29.1695 16.2803 29.2347 16.3011C29.2998 16.3219 29.3693 16.3283 29.4378 16.3197L29.4333 16.3203Z" fill="white"/>
<path d="M52.3228 39.1684C52.3228 39.1684 50.1024 34.9393 46.8001 37.5242" stroke="#E67016" stroke-width="2" stroke-miterlimit="10" stroke-linecap="round"/>
<path d="M21.9108 32.4721C21.9108 32.4721 24.9476 30.1445 26.4885 33.8996" stroke="#E67016" stroke-width="2" stroke-miterlimit="10" stroke-linecap="round"/>
<path d="M43.922 48.193C42.8285 48.2038 41.948 47.0225 41.9553 45.5545C41.9626 44.0866 42.8549 42.8878 43.9483 42.8771C45.0418 42.8664 45.9223 44.0477 45.915 45.5156C45.9077 46.9836 45.0154 48.1823 43.922 48.193Z" fill="black"/>
<path d="M22.7806 43.0507C21.6872 43.0614 20.8067 41.8801 20.814 40.4122C20.8213 38.9442 21.7136 37.7455 22.807 37.7348C23.9004 37.724 24.7809 38.9053 24.7736 40.3733C24.7663 41.8412 23.874 43.04 22.7806 43.0507Z" fill="black"/>
<path d="M66.9985 87.51C59.6179 89.6498 52.9217 89.0662 52.0421 86.2065C51.1624 83.3468 56.4325 79.2939 63.813 77.154C71.1936 75.0142 77.8898 75.5978 78.7694 78.4575C79.649 81.3172 74.379 85.3702 66.9985 87.51Z" fill="url(#paint5_linear_1662_4155)"/>
<path d="M12.8103 56.4463L8.55353 56.7782C7.80243 56.8368 7.15263 56.3057 7.10216 55.592L6.68244 49.6563C6.63197 48.9426 7.19995 48.3166 7.95105 48.258L12.2078 47.9261C12.9589 47.8675 13.6087 48.3986 13.6592 49.1123L14.0789 55.048C14.1294 55.7617 13.5614 56.3877 12.8103 56.4463Z" fill="black"/>
<path d="M7.7878 44.9373L8.04244 44.4424C8.1831 44.1682 8.39659 43.933 8.66147 43.7603C8.92635 43.5877 9.2333 43.4837 9.55148 43.4589C9.86966 43.4341 10.1879 43.4892 10.4742 43.6188C10.7604 43.7484 11.0047 43.9479 11.1825 44.1972L11.4999 44.6442C11.6781 44.8936 11.7833 45.1843 11.805 45.4869C11.8268 45.7896 11.7642 46.0935 11.6237 46.3681C11.4831 46.6427 11.2696 46.8783 11.0045 47.0512C10.7394 47.2241 10.4321 47.3283 10.1136 47.3531L9.54088 47.3967C9.22294 47.4213 8.90505 47.366 8.61907 47.2363C8.33309 47.1067 8.08907 46.9074 7.91149 46.6582C7.73391 46.4091 7.62901 46.119 7.6073 45.8169C7.58559 45.5149 7.64784 45.2115 7.7878 44.9373Z" fill="black"/>
<path d="M10.0823 59.9799L11.8001 59.8466C12.4992 59.7924 13.1511 59.4765 13.6124 58.9685C14.0737 58.4604 14.3067 57.8018 14.26 57.1376C14.2536 57.0471 14.2097 56.9633 14.1379 56.9045C14.0661 56.8458 13.9722 56.8169 13.877 56.8243L7.60557 57.3108C7.51035 57.3182 7.42156 57.3612 7.35872 57.4304C7.29589 57.4996 7.26416 57.5893 7.27052 57.6798C7.31719 58.344 7.63965 58.9595 8.16697 59.3909C8.69428 59.8222 9.38326 60.0341 10.0823 59.9799Z" fill="black"/>
<path d="M34.8973 55.3634C34.8973 55.3634 31.605 58.6589 28.2231 53.8513" stroke="#E67016" stroke-width="2" stroke-miterlimit="10" stroke-linecap="round"/>
<path d="M51.9076 83.8898C51.9076 83.8898 54.0057 92.5414 49.3459 94.7645C44.6862 96.9876 45.1064 93.4769 42.8522 91.0158C40.598 88.5548 51.9076 83.8898 51.9076 83.8898Z" fill="#EFBB59"/>
<path d="M25.4086 49.9806C23.8842 50.5327 23.156 48.5752 22.9824 47.5274C23.7557 46.6661 26.8742 47.2026 26.9349 47.9942C26.9956 48.7859 27.314 49.2904 25.4086 49.9806Z" fill="#1A1A1A" stroke="black"/>
<g filter="url(#filter0_f_1662_4155)">
<ellipse cx="5.02114" cy="3.17585" rx="5.02114" ry="3.17585" transform="matrix(0.996536 -0.0831605 0.0764287 0.997075 43.2453 52.7412)" fill="#FF7F22"/>
</g>
<defs>
<filter id="filter0_f_1662_4155" x="39.482" y="48.2959" width="18.0195" height="14.3887" filterUnits="userSpaceOnUse" color-interpolation-filters="sRGB">
<feFlood flood-opacity="0" result="BackgroundImageFix"/>
<feBlend mode="normal" in="SourceGraphic" in2="BackgroundImageFix" result="shape"/>
<feGaussianBlur stdDeviation="2" result="effect1_foregroundBlur_1662_4155"/>
</filter>
<linearGradient id="paint0_linear_1662_4155" x1="46.6553" y1="89.7042" x2="42.34" y2="59.8942" gradientUnits="userSpaceOnUse">
<stop stop-color="#FFBC41"/>
<stop offset="1" stop-color="#FF7F22"/>
</linearGradient>
<linearGradient id="paint1_linear_1662_4155" x1="43.1681" y1="61.5927" x2="39.9383" y2="8.3413" gradientUnits="userSpaceOnUse">
<stop stop-color="#FFD494"/>
<stop offset="1" stop-color="#FF7F22"/>
</linearGradient>
<linearGradient id="paint2_linear_1662_4155" x1="13.6895" y1="64.3539" x2="12.1272" y2="53.562" gradientUnits="userSpaceOnUse">
<stop stop-color="#FF7F22"/>
<stop offset="1" stop-color="#C7B87D"/>
</linearGradient>
<linearGradient id="paint3_linear_1662_4155" x1="63.1577" y1="32.1137" x2="57.4387" y2="16.5461" gradientUnits="userSpaceOnUse">
<stop stop-color="#FF9141"/>
<stop offset="1" stop-color="#FA6900"/>
</linearGradient>
<linearGradient id="paint4_linear_1662_4155" x1="33.1235" y1="22.0655" x2="30.7159" y2="5.43428" gradientUnits="userSpaceOnUse">
<stop stop-color="#FF9141"/>
<stop offset="1" stop-color="#FA6900"/>
</linearGradient>
<linearGradient id="paint5_linear_1662_4155" x1="50.7977" y1="85.5724" x2="78.2363" y2="76.4383" gradientUnits="userSpaceOnUse">
<stop stop-color="#FF7F22"/>
<stop offset="1" stop-color="#C5C37D"/>
</linearGradient>
</defs>
</svg>
