<svg width="28" height="28" viewBox="0 0 28 28" fill="none" xmlns="http://www.w3.org/2000/svg">
<path d="M14.5303 0.46967C14.2374 0.176777 13.7626 0.176777 13.4697 0.46967L8.6967 5.24264C8.40381 5.53553 8.40381 6.01041 8.6967 6.3033C8.98959 6.59619 9.46447 6.59619 9.75736 6.3033L14 2.06066L18.2426 6.3033C18.5355 6.59619 19.0104 6.59619 19.3033 6.3033C19.5962 6.01041 19.5962 5.53553 19.3033 5.24264L14.5303 0.46967ZM13.4697 27.5303C13.7626 27.8232 14.2374 27.8232 14.5303 27.5303L19.3033 22.7574C19.5962 22.4645 19.5962 21.9896 19.3033 21.6967C19.0104 21.4038 18.5355 21.4038 18.2426 21.6967L14 25.9393L9.75736 21.6967C9.46447 21.4038 8.98959 21.4038 8.6967 21.6967C8.40381 21.9896 8.40381 22.4645 8.6967 22.7574L13.4697 27.5303ZM0.46967 13.4697C0.176777 13.7626 0.176777 14.2374 0.46967 14.5303L5.24264 19.3033C5.53553 19.5962 6.01041 19.5962 6.3033 19.3033C6.59619 19.0104 6.59619 18.5355 6.3033 18.2426L2.06066 14L6.3033 9.75736C6.59619 9.46447 6.59619 8.98959 6.3033 8.6967C6.01041 8.40381 5.53553 8.40381 5.24264 8.6967L0.46967 13.4697ZM27.5303 14.5303C27.8232 14.2374 27.8232 13.7626 27.5303 13.4697L22.7574 8.6967C22.4645 8.40381 21.9896 8.40381 21.6967 8.6967C21.4038 8.98959 21.4038 9.46447 21.6967 9.75736L25.9393 14L21.6967 18.2426C21.4038 18.5355 21.4038 19.0104 21.6967 19.3033C21.9896 19.5962 22.4645 19.5962 22.7574 19.3033L27.5303 14.5303ZM13.25 1V14H14.75V1H13.25ZM13.25 14V27H14.75V14H13.25ZM1 14.75H14V13.25H1V14.75ZM14 14.75H27V13.25H14V14.75Z" fill="#232323"/>
</svg>
