<svg width="40" height="40" viewBox="0 0 40 40" fill="none" xmlns="http://www.w3.org/2000/svg">
<path fill-rule="evenodd" clip-rule="evenodd" d="M21.414 0.585585C21.039 0.210635 20.5303 0 20 0C19.4697 0 18.961 0.210635 18.586 0.585585L14.5859 4.58567C14.3063 4.86538 14.1158 5.22172 14.0387 5.60963C13.9616 5.99754 14.0012 6.39962 14.1525 6.76503C14.3039 7.13043 14.5601 7.44277 14.889 7.66254C15.2178 7.88231 15.6044 7.99966 15.9999 7.99974H18V18H7.99974V15.9999C7.99966 15.6044 7.88231 15.2178 7.66254 14.889C7.44277 14.5601 7.13043 14.3039 6.76503 14.1525C6.39962 14.0012 5.99754 13.9616 5.60963 14.0387C5.22172 14.1158 4.86538 14.3063 4.58567 14.5859L0.585585 18.586C0.210635 18.961 0 19.4697 0 20C0 20.5303 0.210635 21.039 0.585585 21.414L4.58567 25.4141C4.86538 25.6937 5.22172 25.8842 5.60963 25.9613C5.99754 26.0384 6.39962 25.9988 6.76503 25.8475C7.13043 25.6961 7.44277 25.4399 7.66254 25.111C7.88231 24.7822 7.99966 24.3956 7.99974 24.0001V22H18V32.0003H15.9999C15.6044 32.0003 15.2178 32.1177 14.889 32.3375C14.5601 32.5572 14.3039 32.8696 14.1525 33.235C14.0012 33.6004 13.9616 34.0025 14.0387 34.3904C14.1158 34.7783 14.3063 35.1346 14.5859 35.4143L18.586 39.4144C18.961 39.7894 19.4697 40 20 40C20.5303 40 21.039 39.7894 21.414 39.4144L25.4141 35.4143C25.6937 35.1346 25.8842 34.7783 25.9613 34.3904C26.0384 34.0025 25.9988 33.6004 25.8475 33.235C25.6961 32.8696 25.4399 32.5572 25.111 32.3375C24.7822 32.1177 24.3956 32.0003 24.0001 32.0003H22V22H32.0003V24.0001C32.0003 24.3956 32.1177 24.7822 32.3375 25.111C32.5572 25.4399 32.8696 25.6961 33.235 25.8475C33.6004 25.9988 34.0025 26.0384 34.3904 25.9613C34.7783 25.8842 35.1346 25.6937 35.4143 25.4141L39.4144 21.414C39.7894 21.039 40 20.5303 40 20C40 19.4697 39.7894 18.961 39.4144 18.586L35.4143 14.5859C35.1346 14.3063 34.7783 14.1158 34.3904 14.0387C34.0025 13.9616 33.6004 14.0012 33.235 14.1525C32.8696 14.3039 32.5572 14.5601 32.3375 14.889C32.1177 15.2178 32.0003 15.6044 32.0003 15.9999V18H22V7.99974H24.0001C24.3956 7.99966 24.7822 7.88231 25.111 7.66254C25.4399 7.44277 25.6961 7.13043 25.8475 6.76503C25.9988 6.39962 26.0384 5.99754 25.9613 5.60963C25.8842 5.22172 25.6937 4.86538 25.4141 4.58567L21.414 0.585585Z" fill="#8F8F8F"/>
</svg>
