<svg width="35" height="33" viewBox="0 0 35 33" fill="none" xmlns="http://www.w3.org/2000/svg">
<path d="M8.5282 2.19107L1.72919 9.99317C0.978189 10.855 1.06801 12.1624 1.92981 12.9134L12.8527 22.432C13.7145 23.183 15.022 23.0932 15.773 22.2314L22.572 14.4293C23.323 13.5675 23.2332 12.2601 22.3714 11.5091L11.4484 1.99045C10.5866 1.23945 9.2792 1.32927 8.5282 2.19107Z" fill="#FCFCFC" stroke="#E3E3E3" stroke-width="2"/>
<path d="M21.1796 28.0469L28.6889 29.5861C29.0765 29.6655 29.4776 29.6383 29.8516 29.5075C30.2257 29.3767 30.5593 29.1469 30.8188 28.8414C31.0782 28.5358 31.2542 28.1654 31.3289 27.7676C31.4037 27.3699 31.3745 26.959 31.2443 26.5765L28.7562 19.1788C28.6279 18.7977 28.404 18.4579 28.107 18.1935C27.8101 17.9292 27.4504 17.7495 27.0643 17.6727C26.6781 17.5959 26.2791 17.6246 25.9071 17.7559C25.5352 17.8871 25.2036 18.1164 24.9455 18.4207L19.9244 24.2791C19.665 24.5828 19.4882 24.9512 19.4119 25.3472C19.3356 25.7432 19.3624 26.1528 19.4896 26.5348C19.6169 26.9168 19.8401 27.2577 20.1368 27.5231C20.4335 27.7886 20.7932 27.9692 21.1796 28.0469Z" fill="#FCFCFC" stroke="#E3E3E3" stroke-width="2"/>
</svg>
