<svg width="40" height="44" viewBox="0 0 40 44" fill="none" xmlns="http://www.w3.org/2000/svg">
<path d="M31.2558 18.0036L21.5031 9.50481C20.4259 8.56606 18.7916 8.67833 17.8529 9.75558L5.95458 23.4093C5.01584 24.4865 5.12811 26.1208 6.20535 27.0595L15.958 35.5583C17.0352 36.497 18.6695 36.3848 19.6083 35.3075L31.5065 21.6539C32.4453 20.5766 32.333 18.9423 31.2558 18.0036Z" fill="#DCDCDC"/>
<path d="M1.78351 31.6625L0.0500758 40.3297C-0.0392347 40.777 -0.00869482 41.24 0.1386 41.6717C0.285894 42.1034 0.544707 42.4885 0.888804 42.788C1.2329 43.0874 1.65005 43.2905 2.09797 43.3768C2.54588 43.4631 3.00864 43.4294 3.43934 43.2791L11.7702 40.4073C12.1994 40.2593 12.5821 40.0009 12.8798 39.6581C13.1775 39.3153 13.3798 38.9003 13.4663 38.4546C13.5528 38.0089 13.5205 37.5483 13.3727 37.119C13.2248 36.6897 12.9666 36.3069 12.624 36.009L6.02656 30.2137C5.68454 29.9143 5.26967 29.7102 4.82373 29.6222C4.37779 29.5341 3.91651 29.565 3.48634 29.7119C3.05617 29.8588 2.67229 30.1164 2.37336 30.4589C2.07442 30.8013 1.87098 31.2165 1.78351 31.6625Z" fill="#DCDCDC"/>
<path d="M38.0495 10.1985L28.2968 1.69975C27.2196 0.761006 25.5853 0.87328 24.6466 1.95052L22.9468 3.90105C22.0081 4.9783 22.1203 6.61258 23.1976 7.55133L32.9502 16.0501C34.0274 16.9888 35.6617 16.8766 36.6005 15.7993L38.3002 13.8488C39.239 12.7716 39.1267 11.1373 38.0495 10.1985Z" fill="#DCDCDC"/>
</svg>
